<svg xmlns="http://www.w3.org/2000/svg" width="682.667" height="682.667" version="1.0" viewBox="0 0 512 512"><path d="M41.5 33.4c-6.7 2.9-10.5 10.5-9 18.3.6 3.4 22.7 25.9 212.3 215.5s212.1 211.7 215.5 212.3c6 1.1 10.7-.3 14.8-4.4s5.5-8.8 4.4-14.9c-.6-3.2-5.9-8.9-42.6-45.8l-42-42.1 7.3-5.5c20-15 40.4-37.2 54.3-58.8 10.3-16.1 23.5-45.2 23.5-52 0-1.7-1.8-7.9-4.1-13.6-18.3-46.9-51.9-86.1-96.7-112.9-25.9-15.5-56.5-26.2-89.2-31.2-16.1-2.4-52-2.4-68 0-23.1 3.5-47.3 10.6-65.8 19.3-5.2 2.4-10 4.4-10.6 4.4s-20.7-19.6-44.6-43.6c-24.5-24.6-44.9-44.2-46.7-45-4-1.7-8.9-1.7-12.8 0m237.6 129.5c17.9 4.6 31.9 12.7 44.9 26 12.9 13 21.2 27.8 25.7 45.7 2.7 10.7 2.4 33.3-.5 44.4-2.2 8-10.3 26.1-13.7 30.5-1.5 1.9-4.5-1-68-64.5-36.6-36.6-66.4-66.9-66.2-67.4s4.3-3.1 9.2-5.7c9.3-5 21.1-9.2 30.5-10.8 8.6-1.5 29.3-.6 38.1 1.8M81.8 170.2c-16.1 17.8-25.5 30.9-35 48.8-7 13.2-14.8 32.6-14.8 37 0 4.2 7.7 23.6 14.2 36 30.1 57 81.9 97.8 146.4 115.5 21.7 5.9 37.6 7.9 63.4 7.9 27.1 0 46.1-2.6 69-9.4 5.9-1.8 7-2.4 7-4.3 0-1.6-7.5-9.7-25.3-27.5l-25.4-25.4-10.3 1.8c-33.8 5.6-69.6-9.1-91.2-37.6-6.5-8.5-14.1-24.3-16.9-35-2.7-10.2-3.2-29.6-1-40.4l1.4-6.8-34.9-34.9C109.2 176.7 92.8 161 91.9 161c-1 0-5.5 4.2-10.1 9.2"/></svg>