<svg xmlns="http://www.w3.org/2000/svg" width="682.667" height="682.667" version="1.0" viewBox="0 0 512 512"><path d="M205 65.3c-4.7 1.5-10.3 7.4-11.8 12.3-.7 2.3-1.2 9.7-1.2 16.8V107h-67c-59.8 0-67.4.2-70.3 1.6-7.9 4-11.7 10.3-11.7 19.4 0 8.9 3.7 15.2 11.2 19.1 3.5 1.8 6.8 1.9 70.8 1.9h67v12.9c0 18 2.2 23.4 11.4 27.7 13 6 27.7-.4 30.5-13.4 1.5-7.3 1.5-89.1 0-96.4-2.6-12-15.8-18.7-28.9-14.5M287.9 109.3c-2.9 1.5-5.4 4-7.4 7.1-2.5 4.1-2.9 5.8-2.9 11.6s.4 7.5 2.9 11.6c2 3.1 4.5 5.6 7.4 7.1l4.4 2.3h80.9c77.5 0 81-.1 84.6-1.9 7.5-3.9 11.2-10.1 11.2-19.1 0-6.6-1.6-10.7-5.9-15.3-5.4-5.9-2.2-5.7-90.1-5.7h-80.7zM333 193.3c-4.7 1.5-10.3 7.4-11.8 12.3-.7 2.3-1.2 9.7-1.2 16.8V235H189c-126.9 0-131.2.1-134.8 1.9C46.7 240.8 43 247 43 256s3.7 15.2 11.2 19.1c3.6 1.8 7.9 1.9 134.8 1.9h131v12.9c0 18 2.2 23.4 11.4 27.7 13 6 27.7-.4 30.5-13.4 1.5-7.3 1.5-89.1 0-96.4-2.6-12-15.8-18.7-28.9-14.5M415.9 237.3c-2.9 1.5-5.4 4-7.4 7.1-2.5 4.1-2.9 5.8-2.9 11.6s.4 7.5 2.9 11.6c2 3.1 4.5 5.6 7.4 7.1 4.1 2.1 5.6 2.3 21.3 2.3 13.6 0 17.5-.3 20.1-1.6 7.9-4 11.7-10.3 11.7-19.4 0-6.6-1.6-10.7-5.9-15.3-4.6-5-7.8-5.7-26.1-5.7-15.5 0-17 .2-21.1 2.3M119.7 321.5c-2.2.7-5 2.4-6.4 3.7-5 4.7-5.8 7.4-6.3 22.8l-.5 14.5-25 .5c-26.8.5-28.3.8-33.1 6.2-3.8 4.1-5.4 8.5-5.4 14.8s1.6 10.7 5.4 14.8c4.8 5.4 6.3 5.7 33.1 6.2l25 .5.5 14.5c.4 11.1.9 15.2 2.2 17.6 8 14.6 32.1 13.5 38.2-1.7 1.4-3.6 1.7-10 1.7-52 0-44.7-.2-48.3-1.9-52.2-4.4-9.8-16.3-14.3-27.5-10.2M203.5 364.9c-7.2 3.2-11.5 10.4-11.5 19.1s4.3 15.9 11.5 19.1c3.8 1.8 9.8 1.9 127.3 1.9 119.2 0 123.4-.1 127-1.9 7.5-3.9 11.2-10.1 11.2-19.1 0-6.6-1.6-10.7-5.9-15.3-5.5-6 1.7-5.7-132.5-5.7-117.3 0-123.3.1-127.1 1.9"/></svg>