<svg xmlns="http://www.w3.org/2000/svg" width="682.667" height="682.667" version="1.0" viewBox="0 0 512 512"><path d="M235.5 28.5c-16.9 3.1-36.6 11.6-49.5 21.4-8.4 6.3-21.4 19.9-26.9 28-6.4 9.4-13.7 25.3-16.7 36.6-3.5 13.2-4.4 35.5-2.1 49 2.9 16.2 9.8 33.4 19 47 5.3 7.8 18.5 21.4 26.7 27.6 8.1 6.1 23 13.8 33.3 17.3 22.7 7.5 50.7 7.5 73.2 0 17.2-5.7 31.2-14.2 44.3-26.8 14.5-13.9 24-28.8 30.3-47.4 7.8-23.1 8-50.8.3-73.7-3.5-10.5-11.2-25.4-17.3-33.5-6.2-8.2-19.8-21.4-27.6-26.7-13.4-9-30.8-16.1-46.3-18.8-10.2-1.8-31-1.8-40.7 0M226 280.6c-49.5 4.3-91.6 15.5-124.9 33-27 14.3-45.7 31.6-55.7 51.9-7.3 14.8-7.9 18.4-7.9 46 0 22.7.1 24.3 2.3 29.7 3 7.5 9.6 14.7 17.4 18.9l6.3 3.4 190.5.3c175.4.2 190.8.1 195.5-1.4 10.3-3.5 18.7-11.2 22.7-21.3 2.2-5.3 2.3-6.9 2.3-29.6 0-26.8-.7-30.9-7.1-44.4-19.8-42.1-79-73.3-159.7-84.2-11.9-1.6-21.9-2.1-46.2-2.4-17-.1-33-.1-35.5.1"/></svg>