<svg width="425" height="428" viewBox="0 0 425 428" fill="none" xmlns="http://www.w3.org/2000/svg">
<path fill-rule="evenodd" clip-rule="evenodd" d="M-1.88125e-06 406.481C1.06508e-06 418.366 9.62588 428 21.5 428L277.5 428C289.374 428 299 418.366 299 406.481C299 394.596 289.374 384.962 277.5 384.962L21.5 384.962C9.62587 384.962 -4.82759e-06 394.596 -1.88125e-06 406.481ZM340.5 428C352.374 428 362 418.366 362 406.481L362 74.0924L388.297 100.413C396.694 108.817 410.307 108.817 418.703 100.413C427.099 92.0092 427.099 78.3841 418.703 69.9804L354.642 5.86304C346.832 -1.95435 334.168 -1.95436 326.358 5.86305L262.297 69.9804C253.901 78.3842 253.901 92.0092 262.297 100.413C270.693 108.817 284.307 108.817 292.703 100.413L319 74.0924L319 406.481C319 418.366 328.626 428 340.5 428ZM-1.30813e-05 278.368C-1.20423e-05 290.252 9.62587 299.887 21.5 299.887L234.5 299.887C246.374 299.887 256 290.252 256 278.368C256 266.483 246.374 256.849 234.5 256.849L21.5 256.849C9.62586 256.849 -1.41203e-05 266.483 -1.30813e-05 278.368ZM-2.42813e-05 150.254C-2.32423e-05 162.139 9.62586 171.773 21.5 171.773L191.5 171.773C203.374 171.773 213 162.139 213 150.254C213 138.37 203.374 128.735 191.5 128.735L21.5 128.735C9.62585 128.735 -2.53203e-05 138.37 -2.42813e-05 150.254ZM-3.54813e-05 22.1409C-3.44423e-05 34.0256 9.62585 43.66 21.5 43.66L149.5 43.66C161.374 43.66 171 34.0255 171 22.1409C171 10.2563 161.374 0.621883 149.5 0.621884L21.5 0.621895C9.62584 0.621896 -3.65203e-05 10.2563 -3.54813e-05 22.1409Z" fill="black"/>
</svg>
