<svg xmlns="http://www.w3.org/2000/svg" width="682.667" height="682.667" version="1.0" viewBox="0 0 512 512"><path d="M100.3 1.4C82.7 5.7 68.4 20.9 65 38.9c-1.5 7.9-1.4 436.2.1 443.3 1.7 7.7 5 13.7 10.7 19 8.6 8 18.5 11.5 29.8 10.5 13.5-1.3 11.1.8 76.9-64.8 41.4-41.2 61.2-60.3 63.7-61.4 4.8-1.9 14.8-1.9 19.6 0 2.5 1.1 22.3 20.2 63.7 61.4 65.8 65.6 63.4 63.5 76.9 64.8 18.8 1.7 36-10.5 40.2-28.6 1.1-4.6 1.4-45.6 1.4-222.2 0-142.4-.3-218.5-1-222-3.5-18.4-18.7-34-36.8-37.8-8.1-1.7-302.9-1.4-309.9.3"/></svg>