<svg xmlns="http://www.w3.org/2000/svg" width="682.667" height="682.667" version="1.0" viewBox="0 0 512 512"><path d="M43.5 1.2C23.7 4.9 4.7 24.2 1.1 44.4.3 48.5 0 100.6 0 210.9c0 177-.3 166.5 6.3 180 4 8.2 14 18.4 22.2 22.8 11 5.7 14.9 6.4 39.6 7l22.6.6.6 22.6c.6 24.7 1.3 28.6 7 39.6 4.4 8.2 14.6 18.2 22.8 22.2 13.5 6.6 3 6.3 180 6.3 110.3 0 162.4-.3 166.5-1.1 20.6-3.7 39.6-22.7 43.3-43.3.8-4.1 1.1-56.2 1.1-166.5 0-177 .3-166.5-6.3-180-4-8.2-14-18.4-22.2-22.8-11-5.7-14.9-6.4-39.6-7l-22.6-.6-.6-22.6c-.6-24.7-1.3-28.6-7-39.6-4.4-8.2-14.6-18.2-22.8-22.2C377.4-.3 388.1 0 210 .1 113 .2 46.5.6 43.5 1.2m329.2 36.9c4 1.5 7.3 4.8 9.4 9.4 1.8 3.8 1.9 10.6 1.9 162.9v159l-2.1 4.4c-1.3 2.6-3.8 5.4-6.2 7l-4.1 2.7-159 .3c-111 .2-160.2 0-162.8-.8-4.8-1.4-9.7-5.5-11.4-9.7-1.2-2.7-1.4-30.4-1.4-163.5V49.5l2.4-3.9c1.3-2.1 4.1-4.9 6.2-6.2l3.9-2.4h160.2c111 0 161 .3 163 1.1m91.8 91.8c4.6 2.1 7.9 5.4 9.4 9.4.8 2 1.1 51.9 1.1 162.9v160l-2.2 4c-1.3 2.2-4.1 5.1-6.4 6.4l-4.1 2.4H302.2c-110.9 0-160.9-.3-162.9-1.1-4-1.5-7.3-4.8-9.4-9.4-1.6-3.5-1.9-6.7-1.9-23.7v-19.7l123.8-.3 123.7-.3 6.5-2.3c9-3.2 14.5-6.6 21.2-13 7.1-6.8 11.2-13 14.6-22.4l2.7-7.3.3-123.8.3-123.7h19.7c17 0 20.2.3 23.7 1.9"/></svg>