<svg width="114" height="94" viewBox="0 0 114 94" fill="none" xmlns="http://www.w3.org/2000/svg">
<path d="M103.705 0.807979C88.7051 7.00798 24.6051 33.608 6.90506 40.808C-4.89494 45.408 2.00506 49.808 2.00506 49.808C2.00506 49.808 12.1051 53.208 20.8051 55.808C29.5051 58.408 34.2051 55.508 34.2051 55.508L75.0051 28.008C89.5051 18.208 86.0051 26.308 82.5051 29.808C75.0051 37.308 62.5051 49.208 52.1051 58.708C47.5051 62.808 49.8051 66.308 51.8051 68.008C59.3051 74.408 79.9051 87.408 81.1051 88.308C87.2051 92.608 99.2051 98.808 101.005 85.608L108.305 40.208C110.605 24.808 112.905 10.608 113.205 6.60798C114.105 -3.19202 103.605 0.807979 103.605 0.807979H103.705Z" fill="#383836"/>
</svg>
