<svg xmlns="http://www.w3.org/2000/svg" width="682.667" height="682.667" version="1.0" viewBox="0 0 512 512"><path d="M179 44.9c-7.2 2.3-12.5 5.7-18.2 11.8-8.7 9.4-11.8 19.1-11.8 37.9v11.1l-17.2.6c-9.5.4-25.2.7-34.8.7-14.8 0-18.1.3-21.5 1.9-14.8 6.7-15.5 30-1.1 37.9 2.4 1.3 6.5 1.8 17.6 2.2l14.5.5.5 144.1.5 144 3.7 7.5c4.6 9.3 11.2 15.8 20.6 20.2l6.7 3.2h235.1l7.6-3.8c9.1-4.5 15.7-11.2 20.2-20.7l3.1-6.5.5-144 .5-144 14.5-.5c11.1-.4 15.2-.9 17.6-2.2 14.4-7.9 13.7-31.2-1.1-37.9-3.4-1.6-6.7-1.9-21.5-1.9-9.6 0-25.3-.3-34.7-.7l-17.3-.6V94.6c0-12.4-1.8-22.3-5-28.7-2.8-5.4-11.1-14.2-16.4-17.3-9.7-5.7-8.8-5.6-86-5.5-65.1 0-71.6.2-76.6 1.8m141 50.6V106H192V85h128zm42.8 192.7-.3 138.3h-213l-.3-138.3L149 150h214z"/></svg>