<svg width="158" height="158" viewBox="0 0 158 158" fill="none" xmlns="http://www.w3.org/2000/svg">
<path fill-rule="evenodd" clip-rule="evenodd" d="M112.9 157.8H44.9C20.2 157.8 0 137.7 0 112.9V44.9C0 20.1 20.1 0 44.9 0H112.9C137.7 0 157.9 20.1 157.9 44.9V112.9C157.9 137.7 137.7 157.9 112.9 157.9V157.8ZM44.9 13.4C27.6 13.4 13.5 27.5 13.5 44.8V112.8C13.5 130.2 27.6 144.2 44.9 144.2H112.9C130.2 144.2 144.3 130.2 144.3 112.8V44.8C144.3 27.5 130.3 13.4 112.9 13.4H44.9Z" fill="#383836"/>
<path fill-rule="evenodd" clip-rule="evenodd" d="M78.9 119.3C56.6 119.3 38.5 101.2 38.5 78.9C38.5 56.6 56.6 38.5 78.9 38.5C101.2 38.5 119.3 56.6 119.3 78.9C119.3 101.2 101.2 119.3 78.9 119.3ZM78.9 52C64.1 52 52 64.1 52 78.9C52 93.8 64.1 105.8 78.9 105.8C93.7 105.8 105.8 93.8 105.8 78.9C105.8 64.1 93.7 52 78.9 52Z" fill="#383836"/>
<path d="M130.8 36.2C130.8 41.6 126.4 45.9 121.1 45.9C115.7 45.9 111.4 41.6 111.4 36.2C111.4 30.8 115.7 26.5 121.1 26.5C126.4 26.5 130.8 30.8 130.8 36.2Z" fill="#383836"/>
</svg>
