<svg xmlns="http://www.w3.org/2000/svg" width="682.667" height="682.667" version="1.0" viewBox="0 0 512 512"><path d="M9 1.1C2.8 3.7-.1 10.4 2.3 16.2c3.1 7.2 3.3 7.2 29.6 7.9 21.2.5 24.2.8 29.3 2.8 9.6 3.7 19.1 13.8 21.9 23.3.5 1.8 11.1 62.7 23.4 135.3s23.1 134 23.8 136.5c6 19.3 20.5 34.1 39.9 40.7l8.3 2.8H315c128.8 0 136.7-.1 139.3-1.8 3.9-2.6 5.9-6.2 5.9-10.7-.1-4.3-1.7-7.2-5.4-9.8-2.1-1.6-13.8-1.7-138.8-2.2l-136.5-.5-6.6-3.2c-7.8-3.8-14.1-10.2-17.4-17.6-1.3-2.9-3.3-10.8-4.5-17.7-1.1-6.9-2.2-13.5-2.5-14.7l-.5-2.2 133.2-.4c150.1-.3 136.7.4 154.5-8.3 15.5-7.6 28.4-21.5 34.7-37.4 4.4-11.2 40.6-124.7 40.6-127.5 0-3.5-2.5-8.2-5.3-9.7-1.8-1-41.1-1.4-195.7-1.8l-193.4-.5-4.2-25c-5.3-32-7-37.6-14.5-48.6C93 18.7 85.3 11.9 77 7.6 64.8 1.2 62 .7 35.5.4 20.3.1 10.6.4 9 1.1M173.3 401.4c-18.9 4.6-35.9 21.3-40.8 40.1-1.9 7.4-1.9 21.3 0 28.5 6.5 24.4 29.3 41.9 54.6 42 7.1 0 19.6-3.2 26.2-6.7 7.8-4.1 19.7-16.5 23.5-24.3 3.5-7.1 6.2-18 6.2-25 0-24.8-18.3-48.1-42.6-54.5-6.9-1.8-19.8-1.8-27.1-.1M394.3 401.4c-18.9 4.6-35.9 21.3-40.8 40.1-1.9 7.4-1.9 21.3 0 28.5 6.5 24.5 29.2 41.9 54.6 42 7.1 0 19.6-3.2 26.2-6.7 7.8-4.1 19.7-16.5 23.5-24.3 3.5-7.1 6.2-18 6.2-25 0-24.8-18.3-48.1-42.6-54.5-6.9-1.8-19.8-1.8-27.1-.1"/></svg>