<svg width="512" height="512" viewBox="0 0 512 512" fill="none" xmlns="http://www.w3.org/2000/svg"><path fill-rule="evenodd" clip-rule="evenodd" d="M197.846 366.163C290.804 366.163 366.162 290.805 366.162 197.846C366.162 104.887 290.804 29.5293 197.846 29.5293C104.887 29.5293 29.5292 104.887 29.5292 197.846C29.5292 290.805 104.887 366.163 197.846 366.163ZM197.846 395.692C307.113 395.692 395.691 307.113 395.691 197.846C395.691 88.5787 307.113 0 197.846 0C88.5785 0 0 88.5787 0 197.846C0 307.113 88.5785 395.692 197.846 395.692Z" fill="black"/><path fill-rule="evenodd" clip-rule="evenodd" d="M499.124 499.124C492.012 506.235 480.483 506.235 473.371 499.124L321.788 347.54C314.677 340.429 314.677 328.899 321.788 321.788C328.899 314.677 340.429 314.677 347.54 321.788L499.124 473.371C506.235 480.483 506.235 492.012 499.124 499.124Z" fill="black"/></svg>