<svg width="465" height="274" viewBox="0 0 465 274" fill="none" xmlns="http://www.w3.org/2000/svg">
<path fill-rule="evenodd" clip-rule="evenodd" d="M47.0575 3.03737C50.3508 6.38286 50.3084 11.7646 46.9629 15.0578L29.7515 32.0003L435.249 32.0003L418.037 15.0578C414.692 11.7646 414.649 6.38286 417.942 3.03737C421.236 -0.308117 426.617 -0.350491 429.963 2.94272L461.963 34.4427C463.586 36.0405 464.5 38.2227 464.5 40.5003C464.5 42.7778 463.586 44.9601 461.963 46.5578L429.963 78.0578C426.617 81.351 421.236 81.3087 417.942 77.9632C414.649 74.6177 414.692 69.2359 418.037 65.9427L435.248 49.0003L29.7515 49.0003L46.9629 65.9427C50.3084 69.2359 50.3508 74.6177 47.0575 77.9632C43.7643 81.3087 38.3826 81.351 35.0371 78.0578L3.0371 46.5578C1.41401 44.9601 0.5 42.7778 0.5 40.5003C0.5 38.2227 1.41401 36.0405 3.0371 34.4427L35.0371 2.94272C38.3826 -0.350497 43.7643 -0.308122 47.0575 3.03737ZM17 114V257H448V114H433.5V137C433.5 141.695 429.694 145.5 425 145.5C420.306 145.5 416.5 141.695 416.5 137V114H401.5V169C401.5 173.695 397.694 177.5 393 177.5C388.306 177.5 384.5 173.695 384.5 169V114H369.5V137C369.5 141.695 365.694 145.5 361 145.5C356.306 145.5 352.5 141.695 352.5 137V114H337.5V169C337.5 173.695 333.694 177.5 329 177.5C324.306 177.5 320.5 173.695 320.5 169V114H305.5V137C305.5 141.695 301.694 145.5 297 145.5C292.306 145.5 288.5 141.695 288.5 137V114H273.5V169C273.5 173.695 269.694 177.5 265 177.5C260.306 177.5 256.5 173.695 256.5 169V114H241.5V137C241.5 141.695 237.694 145.5 233 145.5C228.306 145.5 224.5 141.695 224.5 137V114H209.5V169C209.5 173.695 205.694 177.5 201 177.5C196.306 177.5 192.5 173.695 192.5 169V114H177.5V137C177.5 141.695 173.694 145.5 169 145.5C164.306 145.5 160.5 141.695 160.5 137V114H145.5V169C145.5 173.695 141.694 177.5 137 177.5C132.306 177.5 128.5 173.695 128.5 169V114H113.5V137C113.5 141.695 109.694 145.5 105 145.5C100.306 145.5 96.5 141.695 96.5 137V114H81.5V169C81.5 173.695 77.6944 177.5 73 177.5C68.3056 177.5 64.5 173.695 64.5 169V114H49.5V137C49.5 141.695 45.6944 145.5 41 145.5C36.3056 145.5 32.5 141.695 32.5 137V114H17ZM8 97.0003C3.58172 97.0003 0 100.582 0 105V266C0 270.419 3.58171 274 7.99999 274H457C461.418 274 465 270.419 465 266V105C465 100.582 461.418 97.0003 457 97.0003H8Z" fill="black"/>
</svg>
