<svg xmlns="http://www.w3.org/2000/svg" width="682.667" height="682.667" version="1.0" viewBox="0 0 512 512"><path d="M176.6 1.1c-29 4.2-56.8 21.9-73.1 46.3C93.7 62.2 88 77.7 86.1 95.3 84.7 107.8 84.6 319 86 331c2.9 25 14.1 48.1 31.8 65.2 17.8 17.2 39.2 27.2 64.2 29.9 6.1.6 44 .9 105 .7 94.2-.4 95.6-.4 103.6-2.5 9.5-2.6 17.2-5.8 25.8-11 7.3-4.3 72.3-68.3 79.1-77.8 8.2-11.5 13.6-24.8 15.5-38.3.8-5.3 1-38.2.8-107.2l-.3-99.5-2.8-10c-11.4-41.9-43.9-71.6-86.5-79C415.1.2 395.7 0 298.1.1c-63.6.1-118.3.5-121.5 1m249.6 45c19.3 7.5 33.7 22.2 40.1 40.9l2.2 6.5.3 91.7.2 91.8h-32.7c-35 0-41.9.7-50.4 5-5.4 2.8-14.2 11.1-17.3 16.4-5.2 9-5.6 12.1-5.6 50.3v35.4l-91.7-.3-91.8-.3-6.5-2.2c-16.2-5.6-30.5-17.8-37.8-32.3-7.5-14.9-7.2-9-7.2-135.5 0-126.3-.3-120.4 7.1-135.5 7.8-15.9 24.3-29.2 41.4-33.4 5.1-1.2 23.7-1.4 124.5-1.3l118.5.2z"/><path d="M288.9 130.8c-3.9 2-6.2 4.1-8.4 7.7l-3 4.8-.3 24.4-.4 24.3h-23.2c-23 0-23.2 0-28.5 2.6-13.2 6.6-15.7 22.9-5.2 33.4 6.4 6.4 9.5 7 35.5 7H277v21.6c0 26 .6 29.1 7 35.5 10.5 10.5 26.8 8 33.4-5.2 2.6-5.3 2.6-5.5 2.6-28.5v-23.2l24.3-.4 24.2-.3 4.7-2.8c8.4-4.9 12.4-14.9 9.7-24.4-1.6-5.9-8.1-12.7-13.5-14.2-2.3-.6-13.6-1.1-26.6-1.1H320v-22.6c0-26.1-.5-29-6.6-35.1-6.9-6.9-15.7-8.1-24.5-3.5M14.2 129.1C9.5 130.5 2.4 138 1 142.9c-.7 2.8-1 44.8-.8 141.3l.3 137.3 2.7 10c10.6 38.3 39 66.8 77.3 77.3l10 2.7 137 .3c106.2.2 138 0 141.5-.9 9.1-2.6 16-13.2 14.7-22.9-.8-6.2-5.1-12.5-10.5-15.7l-4.7-2.8L231 469l-137.5-.5-6.5-2.2c-18.7-6.4-33.4-20.8-40.9-40.1l-2.6-6.7-.5-138-.5-138-2.8-4.7c-4.9-8.4-16-12.6-25.5-9.7"/></svg>