<svg width="116" height="66" viewBox="0 0 116 66" fill="none" xmlns="http://www.w3.org/2000/svg">
<path d="M56.6835 65.6H63.6835C63.6835 65.6 65.7835 65.4 66.7835 64.2C67.7835 63.2 67.7835 61.2 67.7835 61.2C67.7835 61.2 67.5835 51.9 71.9835 50.6C76.1835 49.2 81.6835 59.5 87.4835 63.5C91.8835 66.5 95.1835 65.8 95.1835 65.8L110.683 65.6C110.683 65.6 118.783 65.1 114.883 58.8C114.583 58.2 112.683 54.1 103.383 45.5C93.6835 36.5 94.9835 38 106.683 22.5C113.783 13 116.683 7.2 115.783 4.8C114.883 2.4 109.683 3 109.683 3L92.2835 3.1C92.2835 3.1 90.9835 3 89.9835 3.5C89.0835 4.1 88.4835 5.4 88.4835 5.4C88.4835 5.4 85.6835 12.7 81.9835 18.9C74.2835 32.1 71.1835 32.8 69.8835 31.9C66.8835 30 67.6835 24.3 67.6835 20.2C67.6835 7.5 69.5835 2.2 63.8835 0.8C61.9835 0.4 60.5835 0.1 55.7835 0C49.4835 0 44.2835 0.1 41.2835 1.5C39.2835 2.5 37.7835 4.6 38.6835 4.8C39.8835 4.9 42.4835 5.5 43.8835 7.3C45.6835 9.8 45.5835 15.2 45.5835 15.2C45.5835 15.2 46.5835 30.2 43.1835 32C40.7835 33.3 37.5835 30.7 30.6835 18.8C27.1835 12.7 24.4835 5.9 24.4835 5.9C24.4835 5.9 23.9835 4.7 22.9835 4C21.8835 3.2 20.3835 2.9 20.3835 2.9L3.78347 3C3.78347 3 1.28347 3.1 0.383471 4.2C-0.416529 5.2 0.283471 7.1 0.283471 7.1C0.283471 7.1 13.2835 37.3 27.9835 52.6C41.4835 66.5 56.6835 65.6 56.6835 65.6Z" fill="#383836"/>
</svg>
