<svg xmlns="http://www.w3.org/2000/svg" width="682.667" height="682.667" version="1.0" viewBox="0 0 512 512"><path d="M381.9 1.4c-5.6 2-8 4.1-28.6 24.8L334 45.5l66.3 66.3 66.2 66.2 20.7-20.7c11.3-11.5 21.4-22.4 22.4-24.3 2.6-4.9 2.6-16.1 0-21.5-1.3-2.6-19.6-21.7-54-56.1-47.1-47.1-52.6-52.3-57-53.8-5.9-1.9-11.7-2-16.7-.2M187 192.5 50.5 329l66.3 66.2 66.2 66.3 136.7-136.7L456.5 188l-66-66c-36.3-36.3-66.2-66-66.5-66s-61.9 61.4-137 136.5M22.7 420.2C10.2 461.6-.1 496.4 0 497.5c0 1.1.9 3.9 1.9 6.2 2.1 4.5 7.8 8.3 12.5 8.3 1.4 0 10.5-2.4 20.3-5.4 87.8-26.5 131.9-39.9 132.3-40.3S46.9 345 46 345c-.3 0-10.8 33.9-23.3 75.2"/></svg>