<svg xmlns="http://www.w3.org/2000/svg" width="682.667" height="416" version="1.0" viewBox="0 0 512 312"><path d="M215 1.6c-46 7-90.3 25.1-128.5 52.4-32 22.8-60.3 52.5-79.9 84L0 148.5v16.8l8.3 12.6C54 247.1 126.8 294.5 208 307.9c36.5 6 74.7 5.1 110-2.5 76.2-16.4 143-61.9 185.7-126.5l8.3-12.6v-22l-5.3-8.4c-11.8-18.8-26-36-44.3-53.9-44.2-43-100.9-71.1-161.7-80.1C289.7.3 282.3 0 256 .1c-22 .1-34.4.5-41 1.5M274 33c54.5 4.1 103.5 23.1 146 56.7 18.6 14.7 49.6 49 57.6 63.8 2.3 4.2 2.2 4.3-10.5 21.3-42 55.9-103.3 92.5-173.6 103.4-18.6 2.9-54.9 3.1-73 .5-65.4-9.6-122.4-41.1-166.1-92-9.9-11.5-21.4-27.6-21.4-29.9 0-1.7 7.6-13 16.8-24.8 3.6-4.7 12.9-14.8 20.7-22.6 44.6-44.6 103-71.4 166.2-76.3 15.7-1.2 22.2-1.2 37.3-.1"/><path d="M239 61.4c-19.9 4.2-36.7 13.2-50.5 27.1-31.6 31.6-37.6 80.7-14.3 118.5 6 9.7 17.7 22.4 26.4 28.6 19.2 13.7 44.9 20.3 67.4 17.4 22.6-2.9 41-11.9 57.1-27.9 29.6-29.5 36.9-74.2 18.2-111.6-5.1-10.2-11-18-19.9-26.5-12.9-12.2-23.8-18.5-40.9-23.6-11.1-3.2-32.8-4.2-43.5-2m37.5 34.1c19.5 6.5 33.9 20.6 41.3 40.3 3.3 9 4.2 25.5 1.8 35.7-2.9 12.1-7.9 20.9-17.6 30.5-9.4 9.5-18.4 14.7-30 17.6-9.6 2.4-27.2 1.5-36.2-1.8-14.2-5.3-26.8-15.4-34-27.3-6.3-10.3-9.1-20.3-9.2-32.5-.1-12.5 1.3-18.7 6.6-29.9 5.7-11.9 16.9-23.2 28.9-28.9 16.1-7.8 32.6-9 48.4-3.7"/></svg>