<svg width="426" height="429" viewBox="0 0 426 429" fill="none" xmlns="http://www.w3.org/2000/svg">
<path fill-rule="evenodd" clip-rule="evenodd" d="M0.5 22C0.500002 10.1259 10.1259 0.499998 22 0.5L278 0.500023C289.874 0.500023 299.5 10.1259 299.5 22C299.5 33.8741 289.874 43.5 278 43.5L22 43.5C10.1259 43.5 0.499998 33.8741 0.5 22ZM341 0.5C352.874 0.5 362.5 10.1259 362.5 22L362.5 354.094L388.797 327.797C397.193 319.401 410.807 319.401 419.203 327.797C427.599 336.193 427.599 349.807 419.203 358.203L355.142 422.263C347.332 430.074 334.668 430.074 326.858 422.263L262.797 358.203C254.401 349.807 254.401 336.193 262.797 327.797C271.193 319.401 284.807 319.401 293.203 327.797L319.5 354.094L319.5 22C319.5 10.1259 329.126 0.5 341 0.5ZM0.5 150C0.5 138.126 10.1259 128.5 22 128.5L235 128.5C246.874 128.5 256.5 138.126 256.5 150C256.5 161.874 246.874 171.5 235 171.5L22 171.5C10.1259 171.5 0.5 161.874 0.5 150ZM0.5 278C0.5 266.126 10.1259 256.5 22 256.5H192C203.874 256.5 213.5 266.126 213.5 278C213.5 289.874 203.874 299.5 192 299.5H22C10.1259 299.5 0.5 289.874 0.5 278ZM0.5 406C0.5 394.126 10.1259 384.5 22 384.5H150C161.874 384.5 171.5 394.126 171.5 406C171.5 417.874 161.874 427.5 150 427.5H22C10.1259 427.5 0.5 417.874 0.5 406Z" fill="black"/>
</svg>
