<svg width="691" height="144" viewBox="0 0 691 144" fill="none" xmlns="http://www.w3.org/2000/svg">
<path d="M684.595 138.301H5.79785V102.514H11.5999V132.499H678.793V102.514H684.595V138.301Z" fill="#373A36"/>
<path d="M690.095 143.8H0.298828V97.015H17.0998V127H673.294V97.015H690.095V143.8Z" fill="#373A36"/>
<path d="M147.152 107.76C135.797 107.76 126.077 105.778 117.986 101.806C109.896 97.837 103.692 91.883 99.3712 83.945C95.0502 76.007 92.8892 66.061 92.8892 54.101C92.8892 42.141 95.0502 32.221 99.3712 24.331C103.692 16.446 109.895 10.516 117.986 6.54703C126.076 2.57803 135.797 0.593018 147.152 0.593018C158.507 0.593018 168.232 2.57803 176.318 6.54703C184.408 10.516 190.612 16.446 194.933 24.331C199.254 32.222 201.415 42.144 201.415 54.101C201.415 66.058 199.254 76.007 194.933 83.945C190.612 91.883 184.409 97.837 176.318 101.806C168.233 105.778 158.507 107.76 147.152 107.76ZM147.152 86.659C151.473 86.659 155.295 86.007 158.607 84.698C161.924 83.394 164.716 81.483 166.976 78.971C169.236 76.461 170.919 73.396 172.023 69.777C173.127 66.16 173.684 62.091 173.684 57.57V50.936C173.684 46.315 173.127 42.194 172.023 38.577C170.919 34.96 169.237 31.895 166.976 29.383C164.716 26.873 161.924 24.962 158.607 23.656C155.295 22.352 151.473 21.698 147.152 21.698C142.731 21.698 138.862 22.352 135.55 23.656C132.233 24.962 129.468 26.873 127.26 29.383C125.047 31.896 123.391 34.961 122.287 38.577C121.178 42.194 120.626 46.315 120.626 50.936V57.57C120.626 62.091 121.178 66.16 122.287 69.777C123.391 73.396 125.047 76.461 127.26 78.971C129.468 81.484 132.233 83.395 135.55 84.698C138.862 86.007 142.731 86.659 147.152 86.659Z" fill="#373A36"/>
<path d="M236.996 107.76C230.462 107.76 224.337 107.182 218.607 106.028C212.882 104.874 207.83 102.989 203.462 100.374C199.088 97.764 195.645 94.323 193.137 90.049C190.624 85.78 189.368 80.531 189.368 74.299V72.943C189.368 72.441 189.415 72.039 189.515 71.737H215.595C215.595 72.039 215.569 72.415 215.516 72.867C215.469 73.319 215.442 73.695 215.442 73.997C215.442 77.214 216.273 79.801 217.929 81.759C219.59 83.72 221.924 85.129 224.937 85.98C227.955 86.834 231.471 87.26 235.488 87.26C237.701 87.26 239.762 87.163 241.67 86.96C243.578 86.758 245.287 86.408 246.796 85.903C248.305 85.401 249.635 84.773 250.791 84.018C251.942 83.266 252.799 82.362 253.351 81.305C253.903 80.251 254.182 79.021 254.182 77.612C254.182 75.302 253.299 73.393 251.543 71.885C249.782 70.379 247.422 69.122 244.457 68.118C241.492 67.114 238.154 66.157 234.437 65.253C230.715 64.349 226.846 63.395 222.83 62.391C218.808 61.387 214.939 60.128 211.223 58.622C207.506 57.116 204.163 55.208 201.203 52.895C198.238 50.585 195.872 47.696 194.117 44.229C192.356 40.762 191.478 36.567 191.478 31.641C191.478 26.216 192.635 21.519 194.948 17.55C197.256 13.581 200.447 10.34 204.516 7.827C208.585 5.317 213.285 3.48199 218.61 2.32599C223.935 1.17199 229.613 0.593994 235.643 0.593994C241.573 0.593994 247.124 1.19601 252.297 2.40201C257.475 3.60601 262.07 5.49001 266.091 8.05301C270.107 10.616 273.251 13.833 275.511 17.7C277.771 21.569 278.949 26.216 279.054 31.641V33.452H253.127V32.395C253.127 30.085 252.496 28.05 251.245 26.292C249.983 24.534 248.101 23.125 245.589 22.071C243.076 21.017 239.964 20.489 236.247 20.489C232.53 20.489 229.387 20.841 226.827 21.543C224.262 22.247 222.306 23.254 220.95 24.558C219.594 25.867 218.916 27.423 218.916 29.231C218.916 31.442 219.794 33.25 221.55 34.656C223.306 36.065 225.698 37.271 228.71 38.275C231.728 39.279 235.092 40.21 238.809 41.061C242.526 41.918 246.369 42.822 250.343 43.776C254.312 44.73 258.155 45.937 261.872 47.393C265.589 48.849 268.958 50.708 271.971 52.971C274.989 55.231 277.37 58.02 279.131 61.335C280.887 64.652 281.77 68.671 281.77 73.394C281.77 81.634 279.83 88.266 275.966 93.289C272.097 98.315 266.772 101.981 259.99 104.292C253.203 106.602 245.544 107.759 237.001 107.759L236.996 107.76Z" fill="#373A36"/>
<path d="M273.862 105.952V2.40311H297.823L335.505 50.4831C336.209 51.2901 337.14 52.4441 338.296 53.9501C339.447 55.4591 340.578 56.9911 341.687 58.5471C342.791 60.1061 343.595 61.3361 344.1 62.2401L344.852 62.0901V2.4021H369.875V105.951H346.061L306.113 55.3051C304.809 53.6991 303.579 52.0431 302.423 50.3321C301.266 48.6231 300.336 47.2201 299.637 46.1111L298.88 46.2631V105.951H273.862V105.952Z" fill="#373A36"/>
<path d="M414.057 107.76C402.702 107.76 392.977 105.778 384.891 101.806C376.801 97.837 370.597 91.883 366.276 83.945C361.955 76.007 359.794 66.061 359.794 54.101C359.794 42.141 361.955 32.221 366.276 24.331C370.597 16.446 376.8 10.516 384.891 6.54703C392.976 2.57803 402.702 0.593018 414.057 0.593018C425.412 0.593018 435.132 2.57803 443.223 6.54703C451.308 10.516 457.517 16.446 461.838 24.331C466.159 32.222 468.32 42.144 468.32 54.101C468.32 66.058 466.159 76.007 461.838 83.945C457.517 91.883 451.308 97.837 443.223 101.806C435.133 105.778 425.412 107.76 414.057 107.76ZM414.057 86.659C418.378 86.659 422.195 86.007 425.512 84.698C428.829 83.394 431.615 81.483 433.876 78.971C436.136 76.461 437.819 73.396 438.928 69.777C440.032 66.16 440.584 62.091 440.584 57.57V50.936C440.584 46.315 440.032 42.194 438.928 38.577C437.819 34.96 436.137 31.895 433.876 29.383C431.616 26.873 428.829 24.962 425.512 23.656C422.195 22.352 418.378 21.698 414.057 21.698C409.636 21.698 405.767 22.352 402.45 23.656C399.133 24.962 396.368 26.873 394.16 29.383C391.952 31.896 390.291 34.961 389.187 38.577C388.078 42.194 387.531 46.315 387.531 50.936V57.57C387.531 62.091 388.078 66.16 389.187 69.777C390.291 73.396 391.952 76.461 394.16 78.971C396.368 81.484 399.133 83.395 402.45 84.698C405.767 86.007 409.636 86.659 414.057 86.659Z" fill="#373A36"/>
<path d="M481.689 105.952L444.459 2.40308H473.399L492.387 60.8841C492.792 62.0901 493.291 63.6731 493.896 65.6311C494.501 67.5921 495.126 69.6031 495.778 71.6611C496.435 73.7221 496.961 75.556 497.366 77.162H498.417C498.922 75.656 499.447 73.9211 499.999 71.9631C500.551 70.0021 501.129 68.0441 501.734 66.0861C502.339 64.1251 502.838 62.4431 503.243 61.0341L522.231 2.40308H550.119L513.036 105.952H481.689Z" fill="#373A36"/>
<path d="M487.323 105.952L526.209 2.40308H558.613L597.504 105.952H568.717L562.535 88.0151H521.236L515.054 105.952H487.323ZM527.718 67.8181H555.901L548.515 45.9621C548.115 44.8581 547.637 43.475 547.085 41.817C546.533 40.159 545.981 38.4031 545.429 36.5421C544.872 34.6841 544.346 32.7991 543.847 30.8911C543.342 28.9831 542.838 27.3241 542.338 25.9151H541.281C540.881 27.8261 540.303 29.9871 539.546 32.3971C538.794 34.8101 538.043 37.2201 537.286 39.6331C536.534 42.0431 535.856 44.1541 535.252 45.9621L527.718 67.8181Z" fill="#373A36"/>
</svg>