<svg width="60" height="8" viewBox="0 0 60 8" fill="none" xmlns="http://www.w3.org/2000/svg">
<g clip-path="url(#clip0_2731_12)">
<path d="M8.85053 8C8.00288 8 7.27728 7.85204 6.67329 7.55553C6.06937 7.25925 5.60625 6.81478 5.28368 6.22221C4.96112 5.62964 4.7998 4.88718 4.7998 3.99437C4.7998 3.10155 4.96112 2.36103 5.28368 1.77204C5.60625 1.18342 6.0693 0.740751 6.67329 0.444466C7.27721 0.148181 8.00288 0 8.85053 0C9.69818 0 10.4241 0.148181 11.0278 0.444466C11.6317 0.740751 12.0948 1.18342 12.4174 1.77204C12.7399 2.3611 12.9013 3.10178 12.9013 3.99437C12.9013 4.88695 12.7399 5.62964 12.4174 6.22221C12.0948 6.81478 11.6318 7.25925 11.0278 7.55553C10.4242 7.85204 9.69818 8 8.85053 8ZM8.85053 6.42481C9.17309 6.42481 9.4584 6.37614 9.70564 6.27843C9.95325 6.18108 10.1617 6.03843 10.3304 5.85091C10.4991 5.66354 10.6247 5.43473 10.7071 5.16458C10.7896 4.89457 10.8311 4.59082 10.8311 4.25333V3.7581C10.8311 3.41314 10.7896 3.10551 10.7071 2.8355C10.6247 2.56549 10.4992 2.33669 10.3304 2.14917C10.1617 1.9618 9.95325 1.81914 9.70564 1.72165C9.4584 1.62431 9.17309 1.57549 8.85053 1.57549C8.5205 1.57549 8.23168 1.62431 7.98444 1.72165C7.73683 1.81914 7.53042 1.9618 7.36559 2.14917C7.20039 2.33676 7.07677 2.56557 6.99436 2.8355C6.91157 3.10551 6.87037 3.41314 6.87037 3.7581V4.25333C6.87037 4.59082 6.91157 4.89457 6.99436 5.16458C7.07677 5.43473 7.20039 5.66354 7.36559 5.85091C7.53042 6.0385 7.73683 6.18116 7.98444 6.27843C8.23168 6.37614 8.5205 6.42481 8.85053 6.42481Z" fill="white"/>
<path d="M17.4236 7.99999C16.9358 7.99999 16.4786 7.95684 16.0508 7.87069C15.6235 7.78455 15.2463 7.64383 14.9203 7.44862C14.5938 7.25378 14.3367 6.99692 14.1495 6.67786C13.9619 6.35918 13.8682 5.96735 13.8682 5.50213V5.4009C13.8682 5.36343 13.8717 5.33342 13.8791 5.31087H15.826C15.826 5.33342 15.8241 5.36149 15.8201 5.39523C15.8166 5.42897 15.8146 5.45704 15.8146 5.47958C15.8146 5.71973 15.8766 5.91285 16.0002 6.05901C16.1242 6.2054 16.2985 6.31059 16.5234 6.37411C16.7487 6.43786 17.0111 6.46966 17.311 6.46966C17.4762 6.46966 17.6301 6.46242 17.7725 6.44727C17.9149 6.43219 18.0425 6.40606 18.1552 6.36836C18.2678 6.33089 18.3671 6.28401 18.4534 6.22765C18.5393 6.17151 18.6033 6.10403 18.6445 6.02512C18.6857 5.94644 18.7065 5.85462 18.7065 5.74944C18.7065 5.577 18.6406 5.43449 18.5095 5.32192C18.3781 5.2095 18.2019 5.11567 17.9805 5.04072C17.7592 4.96577 17.51 4.89433 17.2326 4.82684C16.9547 4.75936 16.6659 4.68814 16.3661 4.6132C16.0659 4.53825 15.777 4.44426 15.4996 4.33184C15.2222 4.21942 14.9726 4.07699 14.7516 3.90432C14.5303 3.73188 14.3537 3.51622 14.2227 3.25741C14.0912 2.9986 14.0257 2.68544 14.0257 2.31771C14.0257 1.91274 14.112 1.56211 14.2847 1.26582C14.457 0.969538 14.6952 0.727598 14.999 0.540003C15.3027 0.352632 15.6536 0.215649 16.0511 0.129354C16.4486 0.0432082 16.8724 6.10352e-05 17.3226 6.10352e-05C17.7653 6.10352e-05 18.1796 0.0450013 18.5658 0.135029C18.9523 0.224907 19.2954 0.365548 19.5955 0.556875C19.8953 0.748203 20.13 0.988351 20.2987 1.27702C20.4674 1.56584 20.5554 1.91274 20.5632 2.31771V2.45291H18.6278V2.374C18.6278 2.20156 18.5807 2.04965 18.4873 1.91841C18.3931 1.78718 18.2526 1.682 18.065 1.60332C17.8775 1.52464 17.6451 1.48522 17.3677 1.48522C17.0902 1.48522 16.8556 1.5115 16.6645 1.5639C16.473 1.61645 16.327 1.69163 16.2258 1.78897C16.1245 1.88669 16.0739 2.00284 16.0739 2.13781C16.0739 2.30286 16.1395 2.43783 16.2705 2.54278C16.4016 2.64797 16.5802 2.73799 16.805 2.81294C17.0303 2.88789 17.2815 2.95739 17.5589 3.02092C17.8364 3.08489 18.1233 3.15237 18.4199 3.22359C18.7162 3.29481 19.0031 3.38491 19.2806 3.4936C19.558 3.60229 19.8095 3.74106 20.0345 3.91C20.2598 4.0787 20.4375 4.2869 20.569 4.53437C20.7 4.78198 20.766 5.082 20.766 5.43457C20.766 6.04968 20.6211 6.54476 20.3327 6.91973C20.0439 7.29492 19.6464 7.56858 19.1401 7.7411C18.6334 7.91354 18.0617 7.99991 17.424 7.99991L17.4236 7.99999Z" fill="white"/>
<path d="M21.9673 7.86506V0.135146H23.756L26.5689 3.72431C26.6215 3.78455 26.691 3.8707 26.7773 3.98312C26.8632 4.09577 26.9476 4.21013 27.0304 4.32628C27.1128 4.44266 27.1728 4.53448 27.2105 4.60197L27.2667 4.59077V0.135071H29.1346V7.86498H27.3569L24.3748 4.08427C24.2775 3.96438 24.1857 3.84076 24.0994 3.71304C24.013 3.58546 23.9436 3.48073 23.8914 3.39794L23.8349 3.40929V7.86498H21.9673V7.86506Z" fill="white"/>
<path d="M34.4487 8C33.601 8 32.8751 7.85204 32.2714 7.55553C31.6675 7.25925 31.2044 6.81478 30.8818 6.22221C30.5593 5.62964 30.3979 4.88718 30.3979 3.99437C30.3979 3.10155 30.5593 2.36103 30.8818 1.77204C31.2044 1.18342 31.6674 0.740751 32.2714 0.444466C32.875 0.148181 33.601 0 34.4487 0C35.2963 0 36.0219 0.148181 36.6259 0.444466C37.2295 0.740751 37.693 1.18342 38.0155 1.77204C38.3381 2.3611 38.4994 3.10178 38.4994 3.99437C38.4994 4.88695 38.3381 5.62964 38.0155 6.22221C37.693 6.81478 37.2295 7.25925 36.6259 7.55553C36.022 7.85204 35.2963 8 34.4487 8ZM34.4487 6.42481C34.7712 6.42481 35.0562 6.37614 35.3038 6.27843C35.5514 6.18108 35.7594 6.03843 35.9282 5.85091C36.0969 5.66354 36.2225 5.43473 36.3053 5.16458C36.3877 4.89457 36.4289 4.59082 36.4289 4.25333V3.7581C36.4289 3.41314 36.3877 3.10551 36.3053 2.8355C36.2225 2.56549 36.0969 2.33669 35.9282 2.14917C35.7594 1.9618 35.5514 1.81914 35.3038 1.72165C35.0562 1.62431 34.7712 1.57549 34.4487 1.57549C34.1186 1.57549 33.8298 1.62431 33.5822 1.72165C33.3346 1.81914 33.1282 1.9618 32.9634 2.14917C32.7985 2.33676 32.6745 2.56557 32.5921 2.8355C32.5093 3.10551 32.4685 3.41314 32.4685 3.7581V4.25333C32.4685 4.59082 32.5093 4.89457 32.5921 5.16458C32.6745 5.43473 32.7985 5.66354 32.9634 5.85091C33.1282 6.0385 33.3346 6.18116 33.5822 6.27843C33.8298 6.37614 34.1186 6.42481 34.4487 6.42481Z" fill="white"/>
<path d="M41.7367 7.86505L38.9575 0.135132H41.1179L42.5353 4.50073C42.5656 4.59076 42.6028 4.70893 42.648 4.85509C42.6931 5.00148 42.7398 5.1516 42.7885 5.30523C42.8375 5.45908 42.8768 5.59599 42.907 5.71588H42.9855C43.0232 5.60345 43.0624 5.47394 43.1036 5.32777C43.1448 5.18139 43.1879 5.03522 43.2331 4.88906C43.2783 4.74267 43.3155 4.61711 43.3457 4.51192L44.7632 0.135132H46.845L44.0768 7.86505H41.7367Z" fill="white"/>
<path d="M45.8896 7.86505L48.7925 0.135132H51.2114L54.1146 7.86505H51.9657L51.5042 6.52605H48.4212L47.9598 7.86505H45.8896ZM48.9051 5.01835H51.009L50.4576 3.3868C50.4278 3.30439 50.3921 3.20115 50.3509 3.07738C50.3097 2.95361 50.2685 2.82252 50.2273 2.6836C50.1857 2.5449 50.1464 2.40419 50.1092 2.26175C50.0715 2.11932 50.0338 1.99548 49.9965 1.8903H49.9176C49.8877 2.03295 49.8446 2.19427 49.7881 2.37418C49.732 2.55431 49.6759 2.73421 49.6194 2.91434C49.5632 3.09425 49.5126 3.25184 49.4675 3.3868L48.9051 5.01835Z" fill="white"/>
</g>
<defs>
<clipPath id="clip0_2731_12">
<rect width="60" height="8" fill="white"/>
</clipPath>
</defs>
</svg>
